<svg width="476" height="476" viewBox="0 0 476 476" fill="none" xmlns="http://www.w3.org/2000/svg">
<g filter="url(#filter0_i_2_37)">
<ellipse cx="237.966" cy="237.527" rx="235.103" ry="235.103" transform="rotate(90.5938 237.966 237.527)" fill="url(#paint0_linear_2_37)"/>
</g>
<path d="M236.074 446.592C119.407 445.383 25.8096 349.825 27.0189 233.158C28.2281 116.491 123.786 22.8933 240.453 24.1026C357.12 25.3118 450.717 120.87 449.508 237.537C448.299 354.204 352.741 447.801 236.074 446.592Z" fill="url(#paint1_linear_2_37)" stroke="#E2CD5E" stroke-width="5.78046"/>
<path d="M312.491 190.882C314.239 208.525 307.881 221.029 293.418 228.397C304.775 231.111 313.268 236.103 318.898 243.373C324.528 250.643 326.712 261.016 325.45 274.49C324.77 281.372 323.193 287.431 320.718 292.665C318.243 297.9 315.112 302.214 311.327 305.606C307.541 308.999 302.833 311.835 297.203 314.113C291.574 316.391 285.677 318.063 279.513 319.129C273.35 320.195 266.288 320.922 258.329 321.31V358.388H235.906V321.892C228.141 321.892 222.22 321.843 218.143 321.746V358.388H195.721V321.31C193.974 321.31 191.353 321.286 187.859 321.237C184.364 321.189 181.695 321.165 179.851 321.165H150.731L155.245 294.556H171.406C176.259 294.556 179.074 292.084 179.851 287.14V228.687H182.18C181.598 228.59 180.821 228.542 179.851 228.542V186.811C178.589 180.219 174.269 176.923 166.892 176.923H150.731V153.077L181.598 153.222C187.81 153.222 192.518 153.174 195.721 153.077V116.435H218.143V152.35C226.103 152.156 232.024 152.059 235.906 152.059V116.435H258.329V153.077C265.997 153.755 272.791 154.846 278.712 156.348C284.633 157.851 290.118 160.032 295.165 162.892C300.213 165.751 304.216 169.532 307.177 174.233C310.138 178.935 311.909 184.484 312.491 190.882ZM281.188 270.128C281.188 266.638 280.46 263.536 279.004 260.822C277.548 258.108 275.752 255.878 273.616 254.133C271.481 252.388 268.69 250.91 265.245 249.698C261.799 248.487 258.62 247.59 255.708 247.008C252.796 246.427 249.204 245.99 244.933 245.7C240.663 245.409 237.314 245.263 234.887 245.263C232.46 245.263 229.33 245.312 225.496 245.409C221.662 245.506 219.357 245.554 218.58 245.554V294.701C219.357 294.701 221.152 294.725 223.967 294.774C226.782 294.822 229.112 294.846 230.956 294.846C232.8 294.846 235.372 294.774 238.673 294.628C241.973 294.483 244.812 294.289 247.19 294.047C249.568 293.804 252.335 293.392 255.489 292.811C258.644 292.229 261.338 291.551 263.57 290.775C265.803 290 268.108 288.982 270.486 287.722C272.864 286.461 274.781 285.007 276.237 283.359C277.693 281.712 278.882 279.773 279.804 277.543C280.727 275.314 281.188 272.842 281.188 270.128ZM270.85 200.915C270.85 197.716 270.243 194.881 269.03 192.409C267.817 189.937 266.336 187.901 264.589 186.302C262.842 184.702 260.513 183.345 257.601 182.231C254.689 181.116 252.019 180.316 249.593 179.831C247.166 179.347 244.181 178.959 240.638 178.668C237.095 178.377 234.28 178.256 232.194 178.305C230.107 178.353 227.486 178.402 224.331 178.45C221.177 178.498 219.26 178.523 218.58 178.523V223.162C219.065 223.162 220.74 223.186 223.603 223.235C226.467 223.283 228.723 223.283 230.374 223.235C232.024 223.186 234.45 223.089 237.654 222.944C240.857 222.798 243.526 222.532 245.661 222.144C247.797 221.756 250.296 221.223 253.16 220.545C256.023 219.866 258.377 218.969 260.221 217.855C262.066 216.74 263.861 215.431 265.609 213.929C267.356 212.426 268.666 210.56 269.54 208.331C270.413 206.101 270.85 203.629 270.85 200.915Z" fill="#BB9C3E"/>
<defs>
<filter id="filter0_i_2_37" x="2.86227" y="2.42377" width="470.207" height="472.684" filterUnits="userSpaceOnUse" color-interpolation-filters="sRGB">
<feFlood flood-opacity="0" result="BackgroundImageFix"/>
<feBlend mode="normal" in="SourceGraphic" in2="BackgroundImageFix" result="shape"/>
<feColorMatrix in="SourceAlpha" type="matrix" values="0 0 0 0 0 0 0 0 0 0 0 0 0 0 0 0 0 0 127 0" result="hardAlpha"/>
<feOffset dy="8.2578"/>
<feGaussianBlur stdDeviation="1.23867"/>
<feComposite in2="hardAlpha" operator="arithmetic" k2="-1" k3="1"/>
<feColorMatrix type="matrix" values="0 0 0 0 0.592708 0 0 0 0 0.491021 0 0 0 0 0.162995 0 0 0 1 0"/>
<feBlend mode="normal" in2="shape" result="effect1_innerShadow_2_37"/>
</filter>
<linearGradient id="paint0_linear_2_37" x1="490.935" y1="234.607" x2="-29.4495" y2="223.485" gradientUnits="userSpaceOnUse">
<stop stop-color="#AD8B27"/>
<stop offset="0.479167" stop-color="#F7E582"/>
<stop offset="1" stop-color="#AD8B27"/>
</linearGradient>
<linearGradient id="paint1_linear_2_37" x1="484.346" y1="347.653" x2="-16.0766" y2="194.058" gradientUnits="userSpaceOnUse">
<stop stop-color="#D5AF4A"/>
<stop offset="0.467814" stop-color="#F2E983"/>
<stop offset="0.741687" stop-color="#F2E983"/>
<stop offset="1" stop-color="#D5B14B"/>
</linearGradient>
</defs>
</svg>
