<svg width="643" height="568" viewBox="0 0 643 568" fill="none" xmlns="http://www.w3.org/2000/svg">
<g clip-path="url(#clip0_402_8)" filter="url(#filter0_d_402_8)">
<path d="M485.621 560L51.9955 255.606C37.208 245.247 25.1353 231.476 16.8001 215.46C8.46503 199.445 4.11312 181.656 4.11312 163.601C4.11312 145.546 8.46503 127.757 16.8001 111.742C25.1353 95.7261 37.208 81.9555 51.9955 71.5965L157.03 -1.78496L590.655 302.649C605.435 313.014 617.5 326.786 625.83 342.801C634.159 358.816 638.508 376.602 638.508 394.654C638.508 412.705 634.159 430.491 625.83 446.506C617.5 462.521 605.435 476.294 590.655 486.658L485.621 560ZM156.991 47.1625L75.1206 104.44C65.6034 111.099 57.8328 119.956 52.4676 130.258C47.1025 140.561 44.3011 152.005 44.3011 163.621C44.3011 175.237 47.1025 186.681 52.4676 196.984C57.8328 207.286 65.6034 216.143 75.1206 222.802L485.74 511.053L567.61 453.815C577.119 447.15 584.882 438.291 590.242 427.99C595.601 417.688 598.4 406.246 598.4 394.634C598.4 383.021 595.601 371.58 590.242 361.278C584.882 350.976 577.119 342.118 567.61 335.453L156.991 47.1625Z" fill="#4BC0C8"/>
<path d="M156.594 510.775L74.8429 453.379C65.3336 446.714 57.5705 437.855 52.2108 427.553C46.8512 417.252 44.0529 405.81 44.0529 394.197C44.0529 382.585 46.8512 371.143 52.2108 360.842C57.5705 350.54 65.3336 341.681 74.8429 335.016L286.459 187.063L251.553 162.629L51.9558 302.173C37.1683 312.532 25.0956 326.303 16.7605 342.318C8.42537 358.334 4.07346 376.123 4.07346 394.178C4.07346 412.232 8.42537 430.021 16.7605 446.037C25.0956 462.053 37.1683 475.823 51.9558 486.182L156.713 559.722L286.301 469.047L251.395 444.533L156.594 510.775Z" fill="#02819B"/>
<path d="M590.854 72.0329L486.057 -1.50729L356.35 89.2478L391.256 113.761L486.017 47.5988L567.808 104.995C577.317 111.66 585.08 120.519 590.44 130.82C595.8 141.122 598.598 152.564 598.598 164.176C598.598 175.789 595.8 187.23 590.44 197.532C585.08 207.834 577.317 216.692 567.808 223.357L356.152 371.191L391.058 395.705L590.695 256.042C605.483 245.683 617.555 231.912 625.89 215.897C634.225 199.881 638.577 182.092 638.577 164.037C638.577 145.983 634.225 128.194 625.89 112.178C617.555 96.1624 605.483 82.3918 590.695 72.0329H590.854Z" fill="#02819B"/>
<path d="M241.816 169.224L76.9104 284.606L99.9005 317.464L264.806 202.082L241.816 169.224Z" fill="#02819B"/>
<path d="M546.468 237.994L466.145 294.24L489.111 327.083L572.409 268.735C563.683 258.66 555.075 248.347 546.468 237.994Z" fill="#02819B"/>
</g>
<defs>
<filter id="filter0_d_402_8" x="0" y="0" width="642.651" height="568" filterUnits="userSpaceOnUse" color-interpolation-filters="sRGB">
<feFlood flood-opacity="0" result="BackgroundImageFix"/>
<feColorMatrix in="SourceAlpha" type="matrix" values="0 0 0 0 0 0 0 0 0 0 0 0 0 0 0 0 0 0 127 0" result="hardAlpha"/>
<feOffset dy="4"/>
<feGaussianBlur stdDeviation="2"/>
<feComposite in2="hardAlpha" operator="out"/>
<feColorMatrix type="matrix" values="0 0 0 0 0 0 0 0 0 0 0 0 0 0 0 0 0 0 0.25 0"/>
<feBlend mode="normal" in2="BackgroundImageFix" result="effect1_dropShadow_402_8"/>
<feBlend mode="normal" in="SourceGraphic" in2="effect1_dropShadow_402_8" result="shape"/>
</filter>
<clipPath id="clip0_402_8">
<rect width="634.651" height="560" fill="white" transform="translate(4)"/>
</clipPath>
</defs>
</svg>
